<?xml version="1.0" encoding="UTF-8"?>
<svg id="Layer_1" data-name="Layer 1" xmlns="http://www.w3.org/2000/svg" xmlns:xlink="http://www.w3.org/1999/xlink" viewBox="0 0 4000 4000">
  <defs>
    <style>
      .cls-1 {
        fill: #f7991c;
      }

      .cls-1, .cls-2, .cls-3, .cls-4 {
        stroke-width: 0px;
      }

      .cls-2, .cls-5 {
        fill: none;
      }

      .cls-3 {
        fill: #0b040c;
      }

      .cls-6 {
        clip-path: url(#clippath);
      }

      .cls-4 {
        fill: #ffcb26;
      }

      .cls-5 {
        stroke: #231f20;
        stroke-miterlimit: 10;
        stroke-width: .22px;
      }
    </style>
    <clipPath id="clippath">
      <rect class="cls-2" x="222.6" y="130" width="3683.4" height="3739.26"/>
    </clipPath>
  </defs>
  <g class="cls-6">
    <path class="cls-1" d="M1830.29,2783.46v-241.47l272-193.27v856.62h-197l23.32-21.95c17.72-17.66,27.06-40.84,27.06-67.01v-179.69c0-27.57-11.69-44.96-21.48-54.71l-66.37-62.94-37.52-35.58Z"/>
    <path class="cls-3" d="M997.95,1632.76c-192.45,0-348.47,156.02-348.47,348.47s156.02,348.47,348.47,348.47,348.47-156.02,348.47-348.47-156.02-348.47-348.47-348.47M997.95,2253.17c-150.19,0-271.94-121.75-271.94-271.94s121.75-271.94,271.94-271.94,271.94,121.75,271.94,271.94-121.75,271.94-271.94,271.94"/>
    <path class="cls-3" d="M997.95,1740.16c-132.39,0-239.73,107.33-239.73,239.74s107.33,239.73,239.73,239.73,239.74-107.33,239.74-239.73-107.33-239.74-239.74-239.74"/>
    <path class="cls-4" d="M1246.17,1981.23c0,137.1-111.13,248.22-248.22,248.22s-248.22-111.13-248.22-248.22,111.13-248.22,248.22-248.22,248.22,111.13,248.22,248.22"/>
    <path class="cls-1" d="M1246.17,1981.23c0-104.15-64.23-193.19-155.17-230.02-19.14-4.74-39.06-7.52-59.66-7.52-137.1,0-248.22,111.13-248.22,248.22,0,104.16,64.22,193.19,155.17,230.03,19.14,4.73,39.06,7.52,59.66,7.52,137.09,0,248.22-111.13,248.22-248.22"/>
    <path class="cls-3" d="M2114.75,1219.72c-269.3,0-487.61,218.3-487.61,487.61s218.31,487.61,487.61,487.61,487.61-218.31,487.61-487.61-218.31-487.61-487.61-487.61M2114.75,2087.85c-210.16,0-380.53-170.37-380.53-380.53s170.37-380.53,380.53-380.53,380.53,170.38,380.53,380.53-170.37,380.53-380.53,380.53"/>
    <path class="cls-3" d="M2114.75,1369.99c-185.27,0-335.46,150.19-335.46,335.46s150.19,335.46,335.46,335.46,335.46-150.19,335.46-335.46-150.18-335.46-335.46-335.46"/>
    <path class="cls-4" d="M1633.93,1190.32l-236.94-197.58s425.9-554.66,526.45-566.64l150.83,49.71s-458.99,362.51-481.38,424.15c0,0,13.67,261.03,41.04,290.36"/>
    <path class="cls-3" d="M2093.99,513.77l-68.02,450.98-244.44-27.39-137.14,136.12s-32.98-152.57-18.38-164.29c14.6-11.72,423.95-385.26,467.98-395.42"/>
    <path class="cls-4" d="M1964.99,406.42s240.52-354.79,784.25-180.13c0,0,324.6,76.14,485.27,401.07,0,0-464.85-300.93-769.95-180.81-305.11,120.11-352.48,192.3-352.48,192.3l27.38-177.12-174.47-55.3Z"/>
    <path class="cls-1" d="M2104.27,679.33l-22.82,141.96s360.78,82.93,479.56-119.52c0,0-163.2,61.27-309.97,19.41l-146.77-41.85Z"/>
    <path class="cls-4" d="M2462.09,1707.32c0,191.83-155.51,347.34-347.34,347.34s-347.34-155.5-347.34-347.34,155.51-347.34,347.34-347.34,347.34,155.5,347.34,347.34"/>
    <path class="cls-1" d="M1739.75,2087.61l90.9,416.55,386.61-277.27c-34.86,7.2-70.93,11.03-107.93,11.03-143.79,0-274.02-57.42-369.58-150.32"/>
    <path class="cls-3" d="M2499.28,1353.93c-109.94-176.64-417.84-526.93-417.84-526.93l-30.12,176.84-257.92-25.66-55.18,56.05s117.07,26.38,71.69,181.59l-13.38,64.67c87.27-63.62,194.4-101.62,310.66-101.62,155.79,0,295.37,67.82,392.1,175.06"/>
    <polygon class="cls-1" points="559.14 2518.76 451.94 3205.34 222.6 3205.34 293.35 2540.12 559.14 2518.76"/>
    <path class="cls-1" d="M775.68,1664.15l-256.23-100.15,135.97,237.59c28.63-54.91,70-101.97,120.26-137.44"/>
    <path class="cls-3" d="M1373.85,2067.43l351.68,125.67-19.92-144.02c-78.9-91.89-126.87-211.1-126.87-341.71,0-13.93,1.02-27.6,2.08-41.24l-101.77-43.63-137.44,4.11,124.5,104.7,65.5,151.32-148.92,66.5c.8,10.13,1.54,20.28,1.54,30.62,0,30.21-3.82,59.46-10.38,87.68"/>
    <path class="cls-1" d="M1138.96,1620.4c127.61,50.12,224.29,152.11,243.67,292.17l119.52-54.04-62.98-100.29-134.6-140.9,174.34-32.93,105.37,43.77c4.52-38.2,11.75-58.7,23.95-93.97l-354.8,29.89"/>
    <path class="cls-1" d="M628.45,2092.34l-335.1,407.05c238.67,1.33,513.29-81.91,664.9-135.39-156.53-15.99-285.3-125.47-329.79-271.66"/>
    <path class="cls-3" d="M1033.26,2364.24l-129.71,64.11,58.77,213.66c458.2-127.88,629.02-459.13,629.02-459.13l-225.13-86.46c-46.06,145.49-175.93,253.57-332.95,267.81"/>
    <polygon class="cls-4" points="222.6 3205.34 382.25 2532.97 293.35 2540.12 222.6 3205.34"/>
    <path class="cls-4" d="M293.35,2499.39l335.1-407.05s15.77,48.51,31.67,74.66l-366.78,332.39Z"/>
    <polygon class="cls-4" points="655.42 1801.59 566.57 1582.41 519.44 1564 655.42 1801.59"/>
    <path class="cls-1" d="M2462.09,1707.32c0-145.75-89.87-270.32-217.13-321.87-26.78-6.62-54.64-10.52-83.48-10.52-191.83,0-347.33,155.51-347.33,347.34,0,145.74,89.86,270.33,217.12,321.87,26.78,6.61,54.65,10.52,83.48,10.52,191.83,0,347.34-155.5,347.34-347.34"/>
    <polygon class="cls-4" points="1830.65 2504.17 1899.5 2454.79 1739.75 2087.61 1830.65 2504.17"/>
    <path class="cls-1" d="M1982.83,445.68c-105.43,21.53-523.44,565.85-523.44,565.85l171.6,176.33,2.95,2.45c-27.37-29.33-41.04-290.36-41.04-290.36,22.39-61.63,481.37-424.15,481.37-424.15l-91.43-30.13Z"/>
    <path class="cls-1" d="M3234.52,627.36c-22.87-46.25-49.13-87.3-77.23-123.96-166.07-190.11-377.62-239.82-377.62-239.82-459.87-147.71-702.81,83.25-766.81,158.02l126.61,40.12-27.38,177.13s47.38-72.2,352.49-192.3c305.1-120.11,769.95,180.81,769.95,180.81"/>
    <path class="cls-4" d="M1608.22,1534.21l-354.8,29.89-181.76,34.88s8.4.49,67.3,21.42l469.26-86.19Z"/>
    <polygon class="cls-4" points="1830.29 3159.74 1835.17 3155.16 1857.41 2926.09 1830.29 2900.96 1830.29 3159.74"/>
    <polygon class="cls-4" points="1899.5 2492.81 1830.29 2541.98 1830.29 2783.46 1867.82 2819.04 1899.5 2492.81"/>
    <path class="cls-3" d="M1352.11,2752.89l-126.1-177.79c-70.46,40.36-151.99,76.4-245.73,103.13l53.55,74.98c1.22-.05,2.31-.31,3.55-.31h314.74Z"/>
    <line class="cls-5" x1="1830.29" y1="2900.96" x2="1830.29" y2="3159.75"/>
    <polygon class="cls-5" points="1673.01 3205.34 1667.77 3197.95 1659.86 3205.34 1673.01 3205.34"/>
    <path class="cls-3" d="M1174.77,2950.55v-16.1c0-37.47,25.24-63.64,61.38-63.64h199.59l-23.63-33.32h-318.09l80.75,113.06Z"/>
    <polygon class="cls-3" points="1618.38 3128.31 1495.75 2955.4 1259.37 2955.4 1259.37 3069.01 1307.11 3135.87 1610.29 3135.87 1618.38 3128.31"/>
    <path class="cls-3" d="M2174.24,3164.33v41.02h79.26l109.58-298.76c6.86-21.83,27.14-35.77,52.54-35.77h33.06v-33.3h-156.98s-117.47,326.82-117.47,326.82Z"/>
    <polygon class="cls-3" points="2343.6 3205.34 2448.69 3205.34 2448.69 2955.41 2435.3 2955.41 2343.6 3205.34"/>
    <path class="cls-3" d="M2286.46,2752.89h162.23v-642.67c-36.2,30.73-76.69,56.39-120.3,76.54l-154.15,109.23v618.2l39.84-110.86c10.45-31.24,45.11-50.44,72.38-50.44"/>
    <path class="cls-3" d="M1896.27,2912c6.76,6.72,9,15.71,9,24.7v179.69c0,14.61-4.51,26.96-14.62,37.06l-94.31,88.73,124.62,263.92c5.62,12.35,7.9,19.1,7.9,32.58v12.35c0,12.35-1.12,20.22-17.97,20.22h-169.62c-7.85,0-14.58-4.51-17.93-12.35l-113.44-267.29h-400.94v261.67c0,12.35-5.62,17.97-17.97,17.97h-176.34c-11.25,0-16.86-5.62-16.86-17.97v-725.5c0-21.33,10.12-32.57,31.48-32.57h724.38c13.47,0,24.71,4.47,33.67,13.46l108.93,103.34ZM1634.61,2919.84c-4.5-4.48-10.12-6.74-17.97-6.74h-388.59c-12.35,0-19.09,6.74-19.09,21.34v243.72h409.9l67.38-62.89c5.62-5.62,7.89-10.12,7.89-15.74v-112.3c0-6.73-2.27-12.35-7.89-17.97l-51.63-49.42Z"/>
    <path class="cls-3" d="M2940.99,3504.98c4.5,12.35,7.84,21.34,7.84,32.58v15.72c0,12.34-5.61,17.96-16.81,17.96h-170.73c-7.84,0-12.35-4.5-15.74-13.46l-53.91-147.14h-476.16l-52.79,147.14c-3.35,7.84-8.96,13.46-16.86,13.46h-138.13c-11.24,0-16.86-5.62-16.86-17.96v-15.72c0-11.24,3.39-20.23,7.89-32.58l247.06-687.33c4.51-13.47,22.47-22.46,32.55-22.46h382.97c16.86,0,26.98,7.88,32.6,22.46l247.06,687.33ZM2407.54,2913.11c-6.74,0-11.24,2.25-12.35,6.74l-139.25,379.6h395.33l-139.3-380.72c-1.11-3.37-4.46-5.62-10.08-5.62h-94.35Z"/>
    <path class="cls-3" d="M3892.54,2896.28c0,11.21-5.62,16.83-18.01,16.83h-553.66c-10.12,0-17.97,3.37-24.71,10.12l-39.32,38.17c-6.73,5.61-10.09,13.48-10.09,22.47v64.01c0,5.62,2.24,10.12,6.74,14.6l44.9,43.81c4.51,4.48,9.01,6.73,14.62,6.73h457.08c15.74,0,29.21,5.62,39.32,15.72l81.95,87.62c10.12,11.21,14.62,22.45,14.62,34.8v174.07c0,12.36-4.5,22.47-13.46,31.46l-103.35,98.83c-12.36,10.09-25.82,15.72-40.4,15.72h-707.57c-11.2,0-16.81-5.63-16.81-17.97v-81.98c0-12.37,5.61-17.97,16.81-17.97h585.14c10.12,0,17.97-2.25,25.82-7.87l38.21-39.31c5.61-5.62,7.84-11.23,7.84-17.97v-87.59c-1.11-3.39-3.38-5.62-6.73-8.99l-43.78-42.68c-5.63-5.62-13.52-7.85-21.36-8.99h-468.31c-7.85,0-15.74-2.23-22.47-8.98l-84.23-93.21c-12.36-12.35-14.58-20.23-14.58-37.06v-166.22c0-16.83,8.96-24.71,21.31-34.8l96.58-90.99c9-8.98,20.24-13.47,33.7-13.47h686.18c12.39,0,18.01,5.63,18.01,17.98v83.11Z"/>
    <path class="cls-3" d="M1521.51,3815.72c0,3.1-1.2,5.83-3.51,7.77l-41.89,40.34c-3.88,3.49-8.92,5.43-14.37,5.43h-193.94c-5.41,0-10.45-1.94-14.34-5.43l-41.92-40.34c-2.31-1.94-3.46-4.67-3.46-7.77v-208.3c0-3.88,1.94-6.22,6.19-6.22h61.68c3.88,0,5.81,2.34,5.81,6.22v193.95c0,2.33,1.16,3.88,2.36,5.03l22.1,20.18c1.53,1.55,2.73,1.94,5.04,1.94h108.23c2.32,0,3.47-.39,5.05-1.94l22.1-20.18c1.15-1.15,2.35-2.7,2.35-5.03v-193.95c0-3.88,1.9-6.22,5.78-6.22h60.52c4.3,0,6.24,2.34,6.24,6.22v208.3Z"/>
    <path class="cls-3" d="M1865.32,3858.79c0,6.98-3.1,10.47-9.71,10.47h-38.37c-7.39,0-13.6-2.7-19-8.14l-184.65-173.41v175.34c0,4.28-1.94,6.21-5.82,6.21h-43.08c-3.88,0-5.78-1.94-5.78-6.21v-251.37c0-6.98,3.1-10.47,9.66-10.47h38.41c7.36,0,13.6,2.73,19,8.16l183.08,174.16v-176.11c0-4.28,1.94-6.21,6.24-6.21h44.2c3.89,0,5.83,1.94,5.83,6.21v251.37Z"/>
    <path class="cls-3" d="M1981.44,3863.04c0,4.28-2.31,6.21-6.19,6.21h-61.68c-3.88,0-6.2-1.94-6.2-6.21v-255.62c0-3.88,2.32-6.21,6.2-6.21h61.68c3.88,0,6.19,2.34,6.19,6.21v255.62Z"/>
    <path class="cls-3" d="M2343.83,3846.37c1.54,4.28,2.73,7.37,2.73,11.26v5.41c0,4.28-1.94,6.22-5.83,6.22h-58.98c-2.69,0-4.26-1.55-5.41-4.65l-18.63-50.83h-164.49l-18.22,50.83c-1.15,2.7-3.1,4.65-5.82,4.65h-47.72c-3.88,0-5.81-1.94-5.81-6.22v-5.41c0-3.89,1.15-6.98,2.72-11.26l85.35-237.4c1.58-4.67,7.77-7.77,11.24-7.77h132.31c5.78,0,9.29,2.73,11.24,7.77l85.34,237.4ZM2159.56,3641.94c-2.31,0-3.89.78-4.26,2.33l-48.08,131.12h136.52l-48.08-131.5c-.42-1.16-1.58-1.94-3.51-1.94h-32.59Z"/>
    <path class="cls-3" d="M2684.93,3858.79c0,6.98-3.1,10.47-9.71,10.47h-38.37c-7.39,0-13.6-2.7-19-8.14l-184.65-173.41v175.34c0,4.28-1.94,6.21-5.82,6.21h-43.08c-3.88,0-5.78-1.94-5.78-6.21v-251.37c0-6.98,3.1-10.47,9.66-10.47h38.41c7.36,0,13.6,2.73,19,8.16l183.08,174.16v-176.11c0-4.28,1.94-6.21,6.24-6.21h44.2c3.89,0,5.83,1.94,5.83,6.21v251.37Z"/>
    <path class="cls-3" d="M3036.91,3652.41c2.32,1.94,3.48,4.66,3.48,8.16v135.37c0,4.66-.38,5.81-3.48,8.92l-62.08,58.97c-3.1,3.49-7.77,5.44-13.96,5.44h-225.76c-7.39,0-11.23-3.89-11.23-11.64v-245.17c0-7.37,3.84-11.25,11.23-11.25h239.72c6.61,0,11.64,1.94,15.53,5.43l46.55,45.77ZM2941.86,3645.43c-2.31-2.31-5.42-3.49-8.93-3.49h-129.96c-3.47,0-5.41,1.94-5.41,5.43v174.57c0,4.26,1.94,6.59,6.19,6.59h121.41c3.51,0,6.61-1.16,8.55-3.1l29.87-28.32c1.94-1.94,3.1-4.66,3.1-7.37v-115.99c0-2.7-.78-4.65-2.73-6.59l-22.1-21.73Z"/>
    <path class="cls-3" d="M3355.15,3636.11c0,3.88-1.94,5.83-6.19,5.83h-174.58c-2.31,0-4.25.78-6.2,2.72l-17.84,17.07c-1.94,1.94-2.73,4.27-2.73,6.97v43.83h198.61c4.26,0,6.2,1.94,6.2,5.83v27.55c0,3.86-1.94,5.8-6.2,5.8h-198.61v44.22c0,2.73.78,4.67,2.73,6.61l24.83,23.27c1.94,1.92,3.88,2.7,6.57,2.7h167.58c4.25,0,6.21,1.94,6.21,6.2v28.32c0,4.27-1.95,6.21-6.21,6.21h-209.06c-4.29,0-8.18-1.54-11.65-4.28l-51.22-48.48c-2.32-2.33-3.47-5.03-3.47-8.53v-157.87c0-3.49,1.15-6.22,3.47-8.56l37.26-35.66c3.1-3.13,6.57-4.67,10.86-4.67h223.44c4.26,0,6.19,1.94,6.19,6.21v28.69Z"/>
    <path class="cls-3" d="M3683.1,3636.11c0,3.88-1.94,5.83-6.24,5.83h-191.21c-3.51,0-6.21,1.17-8.56,3.49l-13.55,13.2c-2.35,1.94-3.51,4.65-3.51,7.74v22.12c0,1.94.78,3.49,2.32,5.04l15.53,15.14c1.56,1.55,3.1,2.31,5.04,2.31h157.88c5.45,0,10.08,1.94,13.59,5.44l28.3,30.26c3.51,3.89,5.05,7.77,5.05,12.02v60.13c0,4.27-1.54,7.77-4.63,10.86l-35.69,34.14c-4.3,3.49-8.93,5.43-13.96,5.43h-244.38c-3.88,0-5.83-1.94-5.83-6.21v-28.32c0-4.26,1.95-6.2,5.83-6.2h202.08c3.51,0,6.19-.78,8.93-2.7l13.17-13.6c1.94-1.94,2.73-3.88,2.73-6.19v-30.26c-.37-1.17-1.16-1.94-2.31-3.11l-15.16-14.72c-1.9-1.95-4.62-2.73-7.35-3.1h-161.77c-2.73,0-5.42-.78-7.77-3.12l-29.08-32.2c-4.25-4.26-5.05-6.98-5.05-12.78v-57.42c0-5.82,3.1-8.53,7.36-12.02l33.38-31.41c3.1-3.13,6.98-4.67,11.65-4.67h236.99c4.29,0,6.24,1.94,6.24,6.21v28.69Z"/>
  </g>
</svg>